<mxfile host="app.diagrams.net" agent="Mozilla/5.0 (X11; Linux x86_64; rv:137.0) Gecko/20100101 Firefox/137.0" version="26.2.14" pages="2">
  <diagram name="Page-1" id="7e0a89b8-554c-2b80-1dc8-d5c74ca68de4">
    <mxGraphModel dx="1147" dy="674" grid="1" gridSize="10" guides="1" tooltips="1" connect="1" arrows="1" fold="1" page="1" pageScale="1" pageWidth="1100" pageHeight="850" background="none" math="0" shadow="0">
      <root>
        <mxCell id="0" />
        <mxCell id="1" parent="0" />
        <mxCell id="1cb643a89b7d889d-12" style="edgeStyle=orthogonalEdgeStyle;rounded=0;html=1;exitPerimeter=0;entryX=0;entryY=0.5;entryPerimeter=0;labelBackgroundColor=none;startArrow=none;startFill=0;startSize=5;endArrow=none;endFill=0;endSize=5;jettySize=auto;orthogonalLoop=1;strokeWidth=1;fontFamily=Verdana;fontSize=12;" parent="1" source="VuVPS5KJBOoQBnHny8Ev-2" target="1cb643a89b7d889d-2" edge="1">
          <mxGeometry relative="1" as="geometry" />
        </mxCell>
        <mxCell id="1cb643a89b7d889d-1" value="40&amp;nbsp;&lt;b&gt;Ω&lt;/b&gt;" style="verticalLabelPosition=bottom;shadow=0;dashed=0;align=center;html=1;verticalAlign=top;strokeWidth=1;shape=mxgraph.electrical.resistors.resistor_2;rounded=1;comic=0;labelBackgroundColor=none;fontFamily=Verdana;fontSize=12" parent="1" vertex="1">
          <mxGeometry x="322" y="120" width="100" height="20" as="geometry" />
        </mxCell>
        <mxCell id="1cb643a89b7d889d-15" style="edgeStyle=orthogonalEdgeStyle;rounded=0;html=1;exitX=1;exitY=0.5;exitPerimeter=0;labelBackgroundColor=none;startArrow=none;startFill=0;startSize=5;endArrow=none;endFill=0;endSize=5;jettySize=auto;orthogonalLoop=1;strokeWidth=1;fontFamily=Verdana;fontSize=12;" parent="1" source="1cb643a89b7d889d-2" target="VuVPS5KJBOoQBnHny8Ev-1" edge="1">
          <mxGeometry relative="1" as="geometry">
            <mxPoint x="612" y="170" as="targetPoint" />
            <Array as="points">
              <mxPoint x="582" y="130" />
              <mxPoint x="582" y="170" />
            </Array>
          </mxGeometry>
        </mxCell>
        <mxCell id="1cb643a89b7d889d-2" value="20&amp;nbsp;&lt;b&gt;Ω&lt;/b&gt;" style="verticalLabelPosition=bottom;shadow=0;dashed=0;align=center;html=1;verticalAlign=top;strokeWidth=1;shape=mxgraph.electrical.resistors.resistor_2;rounded=1;comic=0;labelBackgroundColor=none;fontFamily=Verdana;fontSize=12" parent="1" vertex="1">
          <mxGeometry x="462" y="120" width="100" height="20" as="geometry" />
        </mxCell>
        <mxCell id="1cb643a89b7d889d-13" style="edgeStyle=orthogonalEdgeStyle;rounded=0;html=1;exitX=1;exitY=0.5;exitPerimeter=0;labelBackgroundColor=none;startArrow=none;startFill=0;startSize=5;endArrow=none;endFill=0;endSize=5;jettySize=auto;orthogonalLoop=1;strokeWidth=1;fontFamily=Verdana;fontSize=12" parent="1" source="1cb643a89b7d889d-3" target="VuVPS5KJBOoQBnHny8Ev-8" edge="1">
          <mxGeometry relative="1" as="geometry" />
        </mxCell>
        <mxCell id="1cb643a89b7d889d-3" value="70&amp;nbsp;&lt;b&gt;Ω&lt;/b&gt;" style="verticalLabelPosition=bottom;shadow=0;dashed=0;align=center;html=1;verticalAlign=top;strokeWidth=1;shape=mxgraph.electrical.resistors.resistor_2;rounded=1;comic=0;labelBackgroundColor=none;fontFamily=Verdana;fontSize=12" parent="1" vertex="1">
          <mxGeometry x="322" y="210" width="100" height="20" as="geometry" />
        </mxCell>
        <mxCell id="1cb643a89b7d889d-14" style="edgeStyle=orthogonalEdgeStyle;rounded=0;html=1;exitX=1;exitY=0.5;exitPerimeter=0;labelBackgroundColor=none;startArrow=none;startFill=0;startSize=5;endArrow=none;endFill=0;endSize=5;jettySize=auto;orthogonalLoop=1;strokeWidth=1;fontFamily=Verdana;fontSize=12;" parent="1" source="1cb643a89b7d889d-4" target="VuVPS5KJBOoQBnHny8Ev-1" edge="1">
          <mxGeometry relative="1" as="geometry">
            <mxPoint x="670" y="180" as="targetPoint" />
            <Array as="points">
              <mxPoint x="582" y="220" />
              <mxPoint x="582" y="170" />
            </Array>
          </mxGeometry>
        </mxCell>
        <mxCell id="1cb643a89b7d889d-4" value="20&amp;nbsp;&lt;b&gt;Ω&lt;/b&gt;" style="verticalLabelPosition=bottom;shadow=0;dashed=0;align=center;html=1;verticalAlign=top;strokeWidth=1;shape=mxgraph.electrical.resistors.resistor_2;rounded=1;comic=0;labelBackgroundColor=none;fontFamily=Verdana;fontSize=12" parent="1" vertex="1">
          <mxGeometry x="462" y="210" width="100" height="20" as="geometry" />
        </mxCell>
        <mxCell id="1cb643a89b7d889d-10" style="edgeStyle=orthogonalEdgeStyle;rounded=0;html=1;entryX=0;entryY=0.5;entryPerimeter=0;labelBackgroundColor=none;startArrow=none;startFill=0;startSize=5;endArrow=none;endFill=0;endSize=5;jettySize=auto;orthogonalLoop=1;strokeWidth=1;fontFamily=Verdana;fontSize=12" parent="1" source="VuVPS5KJBOoQBnHny8Ev-4" target="1cb643a89b7d889d-1" edge="1">
          <mxGeometry relative="1" as="geometry">
            <Array as="points">
              <mxPoint x="290" y="170" />
              <mxPoint x="290" y="130" />
            </Array>
          </mxGeometry>
        </mxCell>
        <mxCell id="1cb643a89b7d889d-11" style="edgeStyle=orthogonalEdgeStyle;rounded=0;html=1;entryX=0;entryY=0.5;entryPerimeter=0;labelBackgroundColor=none;startArrow=none;startFill=0;startSize=5;endArrow=none;endFill=0;endSize=5;jettySize=auto;orthogonalLoop=1;strokeWidth=1;fontFamily=Verdana;fontSize=12;" parent="1" source="VuVPS5KJBOoQBnHny8Ev-4" target="1cb643a89b7d889d-3" edge="1">
          <mxGeometry relative="1" as="geometry">
            <Array as="points">
              <mxPoint x="290" y="170" />
              <mxPoint x="290" y="220" />
            </Array>
          </mxGeometry>
        </mxCell>
        <mxCell id="1cb643a89b7d889d-5" value="50&amp;nbsp;&lt;b&gt;Ω&lt;/b&gt;" style="verticalLabelPosition=bottom;shadow=0;dashed=0;align=center;html=1;verticalAlign=top;strokeWidth=1;shape=mxgraph.electrical.resistors.resistor_2;rounded=1;comic=0;labelBackgroundColor=none;fontFamily=Verdana;fontSize=12;" parent="1" vertex="1">
          <mxGeometry x="162" y="160" width="100" height="20" as="geometry" />
        </mxCell>
        <mxCell id="1cb643a89b7d889d-9" style="edgeStyle=orthogonalEdgeStyle;rounded=0;html=1;exitX=0;exitY=0.5;exitPerimeter=0;labelBackgroundColor=none;startArrow=none;startFill=0;startSize=5;endArrow=none;endFill=0;endSize=5;jettySize=auto;orthogonalLoop=1;strokeWidth=1;fontFamily=Verdana;fontSize=12" parent="1" source="1cb643a89b7d889d-6" target="VuVPS5KJBOoQBnHny8Ev-5" edge="1">
          <mxGeometry relative="1" as="geometry">
            <Array as="points">
              <mxPoint x="122" y="300" />
            </Array>
          </mxGeometry>
        </mxCell>
        <mxCell id="1cb643a89b7d889d-6" value="20&amp;nbsp;&lt;b&gt;Ω&lt;/b&gt;" style="verticalLabelPosition=bottom;shadow=0;dashed=0;align=center;html=1;verticalAlign=top;strokeWidth=1;shape=mxgraph.electrical.resistors.resistor_2;rounded=1;comic=0;labelBackgroundColor=none;fontFamily=Verdana;fontSize=12" parent="1" vertex="1">
          <mxGeometry x="162" y="290" width="100" height="20" as="geometry" />
        </mxCell>
        <mxCell id="1cb643a89b7d889d-8" style="edgeStyle=orthogonalEdgeStyle;rounded=0;html=1;exitX=1;exitY=0.5;exitPerimeter=0;entryX=1;entryY=0.5;entryPerimeter=0;labelBackgroundColor=none;startArrow=none;startFill=0;startSize=5;endArrow=none;endFill=0;endSize=5;jettySize=auto;orthogonalLoop=1;strokeWidth=1;fontFamily=Verdana;fontSize=12" parent="1" source="1cb643a89b7d889d-7" target="1cb643a89b7d889d-6" edge="1">
          <mxGeometry relative="1" as="geometry" />
        </mxCell>
        <mxCell id="1cb643a89b7d889d-16" style="edgeStyle=orthogonalEdgeStyle;rounded=0;html=1;exitX=0;exitY=0.5;exitPerimeter=0;labelBackgroundColor=none;startArrow=none;startFill=0;startSize=5;endArrow=none;endFill=0;endSize=5;jettySize=auto;orthogonalLoop=1;strokeWidth=1;fontFamily=Verdana;fontSize=12" parent="1" source="1cb643a89b7d889d-7" target="VuVPS5KJBOoQBnHny8Ev-1" edge="1">
          <mxGeometry relative="1" as="geometry">
            <mxPoint x="612" y="170" as="targetPoint" />
            <Array as="points">
              <mxPoint x="632" y="300" />
              <mxPoint x="632" y="170" />
            </Array>
          </mxGeometry>
        </mxCell>
        <mxCell id="1cb643a89b7d889d-7" value="220 V" style="verticalLabelPosition=bottom;shadow=0;dashed=0;align=center;fillColor=default;html=1;verticalAlign=top;strokeWidth=1;shape=mxgraph.electrical.miscellaneous.monocell_battery;rounded=1;comic=0;labelBackgroundColor=none;fontFamily=Verdana;fontSize=12;flipH=1;" parent="1" vertex="1">
          <mxGeometry x="442" y="270" width="100" height="60" as="geometry" />
        </mxCell>
        <mxCell id="VuVPS5KJBOoQBnHny8Ev-1" value="B" style="shape=waypoint;sketch=0;fillStyle=solid;size=6;pointerEvents=1;points=[];fillColor=none;resizable=0;rotatable=0;perimeter=centerPerimeter;snapToPoint=1;verticalAlign=top;spacingBottom=0;spacingTop=-5;fontFamily=Verdana;fontSize=12;" parent="1" vertex="1">
          <mxGeometry x="592" y="150" width="40" height="40" as="geometry" />
        </mxCell>
        <mxCell id="VuVPS5KJBOoQBnHny8Ev-2" value="C" style="shape=waypoint;sketch=0;fillStyle=solid;size=6;pointerEvents=1;points=[];fillColor=none;resizable=0;rotatable=0;perimeter=centerPerimeter;snapToPoint=1;verticalAlign=top;spacingBottom=0;spacingTop=-5;fontFamily=Verdana;fontSize=12;" parent="1" vertex="1">
          <mxGeometry x="423" y="110" width="40" height="40" as="geometry" />
        </mxCell>
        <mxCell id="VuVPS5KJBOoQBnHny8Ev-3" value="" style="edgeStyle=orthogonalEdgeStyle;rounded=0;html=1;exitX=1;exitY=0.5;exitPerimeter=0;entryPerimeter=0;labelBackgroundColor=none;startArrow=none;startFill=0;startSize=5;endArrow=none;endFill=0;endSize=5;jettySize=auto;orthogonalLoop=1;strokeWidth=1;fontFamily=Verdana;fontSize=12;" parent="1" source="1cb643a89b7d889d-1" target="VuVPS5KJBOoQBnHny8Ev-2" edge="1">
          <mxGeometry relative="1" as="geometry">
            <mxPoint x="422" y="130.00000000000006" as="sourcePoint" />
            <mxPoint x="462" y="130.00000000000006" as="targetPoint" />
          </mxGeometry>
        </mxCell>
        <mxCell id="VuVPS5KJBOoQBnHny8Ev-4" value="A" style="shape=waypoint;sketch=0;fillStyle=solid;size=6;pointerEvents=1;points=[];fillColor=none;resizable=0;rotatable=0;perimeter=centerPerimeter;snapToPoint=1;verticalAlign=top;spacingBottom=0;spacingTop=-5;fontFamily=Verdana;fontSize=12;" parent="1" vertex="1">
          <mxGeometry x="242" y="150" width="40" height="40" as="geometry" />
        </mxCell>
        <mxCell id="VuVPS5KJBOoQBnHny8Ev-5" value="E" style="shape=waypoint;sketch=0;fillStyle=solid;size=6;pointerEvents=1;points=[];fillColor=none;resizable=0;rotatable=0;perimeter=centerPerimeter;snapToPoint=1;verticalAlign=middle;spacingBottom=0;spacingTop=0;fontFamily=Verdana;fontSize=12;labelPosition=center;verticalLabelPosition=middle;align=left;spacingRight=0;spacingLeft=6;" parent="1" vertex="1">
          <mxGeometry x="102" y="214" width="40" height="40" as="geometry" />
        </mxCell>
        <mxCell id="VuVPS5KJBOoQBnHny8Ev-7" style="edgeStyle=orthogonalEdgeStyle;rounded=0;html=1;labelBackgroundColor=none;startArrow=none;startFill=0;startSize=5;endArrow=none;endFill=0;endSize=5;jettySize=auto;orthogonalLoop=1;strokeWidth=1;fontFamily=Verdana;fontSize=12;entryX=0;entryY=0.5;entryDx=0;entryDy=0;entryPerimeter=0;" parent="1" source="VuVPS5KJBOoQBnHny8Ev-5" target="1cb643a89b7d889d-5" edge="1">
          <mxGeometry relative="1" as="geometry">
            <Array as="points">
              <mxPoint x="122" y="170" />
            </Array>
            <mxPoint x="172" y="310" as="sourcePoint" />
            <mxPoint x="132" y="244" as="targetPoint" />
          </mxGeometry>
        </mxCell>
        <mxCell id="VuVPS5KJBOoQBnHny8Ev-8" value="D" style="shape=waypoint;sketch=0;fillStyle=solid;size=6;pointerEvents=1;points=[];fillColor=none;resizable=0;rotatable=0;perimeter=centerPerimeter;snapToPoint=1;verticalAlign=top;spacingBottom=0;spacingTop=-5;fontFamily=Verdana;fontSize=12;" parent="1" vertex="1">
          <mxGeometry x="422" y="200" width="40" height="40" as="geometry" />
        </mxCell>
        <mxCell id="VuVPS5KJBOoQBnHny8Ev-9" style="edgeStyle=orthogonalEdgeStyle;rounded=0;html=1;labelBackgroundColor=none;startArrow=none;startFill=0;startSize=5;endArrow=none;endFill=0;endSize=5;jettySize=auto;orthogonalLoop=1;strokeWidth=1;fontFamily=Verdana;fontSize=12;entryX=0;entryY=0.5;entryDx=0;entryDy=0;entryPerimeter=0;" parent="1" source="VuVPS5KJBOoQBnHny8Ev-8" target="1cb643a89b7d889d-4" edge="1">
          <mxGeometry relative="1" as="geometry">
            <mxPoint x="432" y="230" as="sourcePoint" />
            <mxPoint x="452" y="230" as="targetPoint" />
          </mxGeometry>
        </mxCell>
      </root>
    </mxGraphModel>
  </diagram>
  <diagram id="gWzHdZIWq3Hy3Vne_KNp" name="Page-2">
    <mxGraphModel dx="986" dy="408" grid="1" gridSize="10" guides="1" tooltips="1" connect="1" arrows="1" fold="1" page="1" pageScale="1" pageWidth="291" pageHeight="413" math="0" shadow="0">
      <root>
        <mxCell id="0" />
        <mxCell id="1" parent="0" />
        <mxCell id="wLUBLnHTGpkRBW0rEwFv-1" value="" style="pointerEvents=1;verticalLabelPosition=bottom;shadow=0;dashed=0;align=center;html=1;verticalAlign=top;shape=mxgraph.electrical.capacitors.capacitor_1;rotation=90;" vertex="1" parent="1">
          <mxGeometry x="30" y="160" width="55" height="33" as="geometry" />
        </mxCell>
        <mxCell id="wLUBLnHTGpkRBW0rEwFv-2" value="" style="pointerEvents=1;verticalLabelPosition=bottom;shadow=0;dashed=0;align=center;html=1;verticalAlign=top;shape=mxgraph.electrical.capacitors.capacitor_1;rotation=90;" vertex="1" parent="1">
          <mxGeometry x="118" y="160" width="55" height="33" as="geometry" />
        </mxCell>
        <mxCell id="wLUBLnHTGpkRBW0rEwFv-3" value="..." style="text;html=1;align=center;verticalAlign=middle;resizable=0;points=[];autosize=1;strokeColor=none;fillColor=none;" vertex="1" parent="1">
          <mxGeometry x="88" y="160" width="30" height="30" as="geometry" />
        </mxCell>
        <mxCell id="wLUBLnHTGpkRBW0rEwFv-4" value="&lt;div&gt;C&lt;sub&gt;0&lt;/sub&gt;&lt;/div&gt;" style="text;html=1;align=center;verticalAlign=middle;resizable=0;points=[];autosize=1;strokeColor=none;fillColor=none;" vertex="1" parent="1">
          <mxGeometry x="60" y="150" width="40" height="30" as="geometry" />
        </mxCell>
        <mxCell id="wLUBLnHTGpkRBW0rEwFv-5" value="" style="endArrow=none;html=1;rounded=0;" edge="1" parent="1">
          <mxGeometry width="50" height="50" relative="1" as="geometry">
            <mxPoint x="28.5" y="204" as="sourcePoint" />
            <mxPoint x="86.5" y="204" as="targetPoint" />
          </mxGeometry>
        </mxCell>
        <mxCell id="wLUBLnHTGpkRBW0rEwFv-6" value="" style="endArrow=none;html=1;rounded=0;" edge="1" parent="1">
          <mxGeometry width="50" height="50" relative="1" as="geometry">
            <mxPoint x="29" y="204" as="sourcePoint" />
            <mxPoint x="29" y="204" as="targetPoint" />
          </mxGeometry>
        </mxCell>
        <mxCell id="wLUBLnHTGpkRBW0rEwFv-7" value="" style="endArrow=none;html=1;rounded=0;" edge="1" parent="1">
          <mxGeometry width="50" height="50" relative="1" as="geometry">
            <mxPoint x="76" y="214" as="sourcePoint" />
            <mxPoint x="86" y="204" as="targetPoint" />
          </mxGeometry>
        </mxCell>
        <mxCell id="wLUBLnHTGpkRBW0rEwFv-8" value="" style="endArrow=none;html=1;rounded=0;" edge="1" parent="1">
          <mxGeometry width="50" height="50" relative="1" as="geometry">
            <mxPoint x="75" y="230" as="sourcePoint" />
            <mxPoint x="75" y="220" as="targetPoint" />
          </mxGeometry>
        </mxCell>
        <mxCell id="wLUBLnHTGpkRBW0rEwFv-9" value="" style="endArrow=none;html=1;rounded=0;" edge="1" parent="1">
          <mxGeometry width="50" height="50" relative="1" as="geometry">
            <mxPoint x="93" y="250" as="sourcePoint" />
            <mxPoint x="93" y="220" as="targetPoint" />
          </mxGeometry>
        </mxCell>
        <mxCell id="wLUBLnHTGpkRBW0rEwFv-10" value="" style="pointerEvents=1;verticalLabelPosition=bottom;shadow=0;dashed=0;align=center;html=1;verticalAlign=top;shape=mxgraph.electrical.signal_sources.signal_ground;" vertex="1" parent="1">
          <mxGeometry x="70" y="230" width="10" height="10" as="geometry" />
        </mxCell>
        <mxCell id="wLUBLnHTGpkRBW0rEwFv-11" value="" style="endArrow=none;html=1;rounded=0;" edge="1" parent="1">
          <mxGeometry width="50" height="50" relative="1" as="geometry">
            <mxPoint x="29" y="227" as="sourcePoint" />
            <mxPoint x="29" y="217" as="targetPoint" />
          </mxGeometry>
        </mxCell>
        <mxCell id="wLUBLnHTGpkRBW0rEwFv-12" value="" style="pointerEvents=1;verticalLabelPosition=bottom;shadow=0;dashed=0;align=center;html=1;verticalAlign=top;shape=mxgraph.electrical.signal_sources.signal_ground;" vertex="1" parent="1">
          <mxGeometry x="24" y="227" width="10" height="10" as="geometry" />
        </mxCell>
        <mxCell id="wLUBLnHTGpkRBW0rEwFv-21" value="" style="curved=1;endArrow=classic;html=1;rounded=0;endSize=3;" edge="1" parent="1">
          <mxGeometry width="50" height="50" relative="1" as="geometry">
            <mxPoint x="70" y="215" as="sourcePoint" />
            <mxPoint x="90" y="217" as="targetPoint" />
            <Array as="points">
              <mxPoint x="80" y="208" />
            </Array>
          </mxGeometry>
        </mxCell>
        <mxCell id="wLUBLnHTGpkRBW0rEwFv-22" value="&lt;font style=&quot;font-size: 6px;&quot;&gt;b&lt;sub&gt;0&lt;/sub&gt;&lt;/font&gt;" style="text;html=1;align=center;verticalAlign=middle;resizable=0;points=[];autosize=1;strokeColor=none;fillColor=none;" vertex="1" parent="1">
          <mxGeometry x="57" y="192" width="30" height="30" as="geometry" />
        </mxCell>
        <mxCell id="wLUBLnHTGpkRBW0rEwFv-23" value="" style="endArrow=none;html=1;rounded=0;" edge="1" parent="1" source="O_kGr-6tOdU5lBr-60iN-7">
          <mxGeometry width="50" height="50" relative="1" as="geometry">
            <mxPoint x="20" y="250" as="sourcePoint" />
            <mxPoint x="200" y="250" as="targetPoint" />
          </mxGeometry>
        </mxCell>
        <mxCell id="wLUBLnHTGpkRBW0rEwFv-24" value="V&lt;sub&gt;r&lt;/sub&gt;" style="text;html=1;align=center;verticalAlign=middle;resizable=0;points=[];autosize=1;strokeColor=none;fillColor=none;" vertex="1" parent="1">
          <mxGeometry x="-50" y="235" width="30" height="30" as="geometry" />
        </mxCell>
        <mxCell id="wLUBLnHTGpkRBW0rEwFv-25" value="" style="curved=1;endArrow=classic;html=1;rounded=0;endSize=3;" edge="1" parent="1">
          <mxGeometry width="50" height="50" relative="1" as="geometry">
            <mxPoint x="-25" y="147" as="sourcePoint" />
            <mxPoint x="-5" y="149" as="targetPoint" />
            <Array as="points">
              <mxPoint x="-15" y="140" />
            </Array>
          </mxGeometry>
        </mxCell>
        <mxCell id="wLUBLnHTGpkRBW0rEwFv-26" value="&lt;font style=&quot;font-size: 7px;&quot;&gt;P&lt;sub&gt;1&lt;/sub&gt;&lt;/font&gt;" style="text;html=1;align=center;verticalAlign=middle;resizable=0;points=[];autosize=1;strokeColor=none;fillColor=none;" vertex="1" parent="1">
          <mxGeometry x="-40" y="120" width="30" height="30" as="geometry" />
        </mxCell>
        <mxCell id="wLUBLnHTGpkRBW0rEwFv-28" value="&lt;div&gt;C&lt;sub&gt;Mn&lt;/sub&gt;&lt;/div&gt;" style="text;html=1;align=center;verticalAlign=middle;resizable=0;points=[];autosize=1;strokeColor=none;fillColor=none;" vertex="1" parent="1">
          <mxGeometry x="141" y="150" width="50" height="30" as="geometry" />
        </mxCell>
        <mxCell id="wLUBLnHTGpkRBW0rEwFv-29" value="" style="endArrow=none;html=1;rounded=0;" edge="1" parent="1">
          <mxGeometry width="50" height="50" relative="1" as="geometry">
            <mxPoint x="-50" y="150" as="sourcePoint" />
            <mxPoint x="-22" y="150" as="targetPoint" />
          </mxGeometry>
        </mxCell>
        <mxCell id="wLUBLnHTGpkRBW0rEwFv-31" value="V&lt;sub&gt;in&lt;/sub&gt;" style="text;html=1;align=center;verticalAlign=middle;resizable=0;points=[];autosize=1;strokeColor=none;fillColor=none;" vertex="1" parent="1">
          <mxGeometry x="-95" y="130" width="40" height="30" as="geometry" />
        </mxCell>
        <mxCell id="wLUBLnHTGpkRBW0rEwFv-32" value="" style="endArrow=none;html=1;rounded=0;" edge="1" parent="1">
          <mxGeometry width="50" height="50" relative="1" as="geometry">
            <mxPoint x="-23" y="150" as="sourcePoint" />
            <mxPoint x="-10" y="140" as="targetPoint" />
          </mxGeometry>
        </mxCell>
        <mxCell id="wLUBLnHTGpkRBW0rEwFv-44" value="" style="endArrow=none;html=1;rounded=0;" edge="1" parent="1">
          <mxGeometry width="50" height="50" relative="1" as="geometry">
            <mxPoint x="117.5" y="204" as="sourcePoint" />
            <mxPoint x="175.5" y="204" as="targetPoint" />
          </mxGeometry>
        </mxCell>
        <mxCell id="wLUBLnHTGpkRBW0rEwFv-45" value="" style="endArrow=none;html=1;rounded=0;" edge="1" parent="1">
          <mxGeometry width="50" height="50" relative="1" as="geometry">
            <mxPoint x="117.99999999999989" y="204" as="sourcePoint" />
            <mxPoint x="118" y="204" as="targetPoint" />
          </mxGeometry>
        </mxCell>
        <mxCell id="wLUBLnHTGpkRBW0rEwFv-46" value="" style="endArrow=none;html=1;rounded=0;" edge="1" parent="1">
          <mxGeometry width="50" height="50" relative="1" as="geometry">
            <mxPoint x="165" y="214" as="sourcePoint" />
            <mxPoint x="175" y="204" as="targetPoint" />
          </mxGeometry>
        </mxCell>
        <mxCell id="wLUBLnHTGpkRBW0rEwFv-47" value="" style="endArrow=none;html=1;rounded=0;" edge="1" parent="1">
          <mxGeometry width="50" height="50" relative="1" as="geometry">
            <mxPoint x="164" y="230" as="sourcePoint" />
            <mxPoint x="164" y="220" as="targetPoint" />
          </mxGeometry>
        </mxCell>
        <mxCell id="wLUBLnHTGpkRBW0rEwFv-48" value="" style="endArrow=none;html=1;rounded=0;" edge="1" parent="1">
          <mxGeometry width="50" height="50" relative="1" as="geometry">
            <mxPoint x="182" y="250" as="sourcePoint" />
            <mxPoint x="182" y="220" as="targetPoint" />
          </mxGeometry>
        </mxCell>
        <mxCell id="wLUBLnHTGpkRBW0rEwFv-49" value="" style="pointerEvents=1;verticalLabelPosition=bottom;shadow=0;dashed=0;align=center;html=1;verticalAlign=top;shape=mxgraph.electrical.signal_sources.signal_ground;" vertex="1" parent="1">
          <mxGeometry x="159" y="230" width="10" height="10" as="geometry" />
        </mxCell>
        <mxCell id="wLUBLnHTGpkRBW0rEwFv-50" value="" style="endArrow=none;html=1;rounded=0;" edge="1" parent="1">
          <mxGeometry width="50" height="50" relative="1" as="geometry">
            <mxPoint x="118" y="227" as="sourcePoint" />
            <mxPoint x="118" y="217" as="targetPoint" />
          </mxGeometry>
        </mxCell>
        <mxCell id="wLUBLnHTGpkRBW0rEwFv-51" value="" style="pointerEvents=1;verticalLabelPosition=bottom;shadow=0;dashed=0;align=center;html=1;verticalAlign=top;shape=mxgraph.electrical.signal_sources.signal_ground;" vertex="1" parent="1">
          <mxGeometry x="113" y="227" width="10" height="10" as="geometry" />
        </mxCell>
        <mxCell id="wLUBLnHTGpkRBW0rEwFv-52" value="" style="curved=1;endArrow=classic;html=1;rounded=0;endSize=3;" edge="1" parent="1">
          <mxGeometry width="50" height="50" relative="1" as="geometry">
            <mxPoint x="159" y="215" as="sourcePoint" />
            <mxPoint x="179" y="217" as="targetPoint" />
            <Array as="points">
              <mxPoint x="169" y="208" />
            </Array>
          </mxGeometry>
        </mxCell>
        <mxCell id="wLUBLnHTGpkRBW0rEwFv-53" value="&lt;font style=&quot;font-size: 6px;&quot;&gt;b&lt;sub&gt;Mn&lt;/sub&gt;&lt;/font&gt;" style="text;html=1;align=center;verticalAlign=middle;resizable=0;points=[];autosize=1;strokeColor=none;fillColor=none;" vertex="1" parent="1">
          <mxGeometry x="146" y="192" width="30" height="30" as="geometry" />
        </mxCell>
        <mxCell id="wLUBLnHTGpkRBW0rEwFv-57" style="endArrow=none;edgeStyle=orthogonalEdgeStyle;rounded=0;orthogonalLoop=1;jettySize=auto;html=1;" edge="1" parent="1" source="O_kGr-6tOdU5lBr-60iN-1">
          <mxGeometry relative="1" as="geometry">
            <mxPoint y="149.49999999999994" as="targetPoint" />
          </mxGeometry>
        </mxCell>
        <mxCell id="wLUBLnHTGpkRBW0rEwFv-54" value="" style="pointerEvents=1;verticalLabelPosition=bottom;shadow=0;dashed=0;align=center;html=1;verticalAlign=top;shape=mxgraph.electrical.capacitors.capacitor_1;rotation=0;" vertex="1" parent="1">
          <mxGeometry x="180" y="133" width="55" height="33" as="geometry" />
        </mxCell>
        <mxCell id="O_kGr-6tOdU5lBr-60iN-2" value="" style="endArrow=none;edgeStyle=orthogonalEdgeStyle;rounded=0;orthogonalLoop=1;jettySize=auto;html=1;" edge="1" parent="1" source="wLUBLnHTGpkRBW0rEwFv-54" target="O_kGr-6tOdU5lBr-60iN-1">
          <mxGeometry relative="1" as="geometry">
            <mxPoint y="149.49999999999994" as="targetPoint" />
            <mxPoint x="180" y="150" as="sourcePoint" />
          </mxGeometry>
        </mxCell>
        <mxCell id="O_kGr-6tOdU5lBr-60iN-1" value="" style="shape=waypoint;sketch=0;fillStyle=solid;size=6;pointerEvents=1;points=[];fillColor=none;resizable=0;rotatable=0;perimeter=centerPerimeter;snapToPoint=1;verticalAlign=top;spacingBottom=0;spacingTop=-5;fontFamily=Verdana;fontSize=12;strokeWidth=0;" vertex="1" parent="1">
          <mxGeometry x="37.5" y="130" width="40" height="40" as="geometry" />
        </mxCell>
        <mxCell id="O_kGr-6tOdU5lBr-60iN-5" value="" style="shape=waypoint;sketch=0;fillStyle=solid;size=6;pointerEvents=1;points=[];fillColor=none;resizable=0;rotatable=0;perimeter=centerPerimeter;snapToPoint=1;verticalAlign=top;spacingBottom=0;spacingTop=-5;fontFamily=Verdana;fontSize=12;strokeWidth=0;" vertex="1" parent="1">
          <mxGeometry x="125.5" y="130" width="40" height="40" as="geometry" />
        </mxCell>
        <mxCell id="O_kGr-6tOdU5lBr-60iN-6" value="" style="endArrow=none;html=1;rounded=0;" edge="1" parent="1" target="O_kGr-6tOdU5lBr-60iN-4">
          <mxGeometry width="50" height="50" relative="1" as="geometry">
            <mxPoint x="-10" y="250" as="sourcePoint" />
            <mxPoint x="200" y="250" as="targetPoint" />
          </mxGeometry>
        </mxCell>
        <mxCell id="O_kGr-6tOdU5lBr-60iN-4" value="" style="shape=waypoint;sketch=0;fillStyle=solid;size=6;pointerEvents=1;points=[];fillColor=none;resizable=0;rotatable=0;perimeter=centerPerimeter;snapToPoint=1;verticalAlign=top;spacingBottom=0;spacingTop=-5;fontFamily=Verdana;fontSize=12;strokeWidth=0;" vertex="1" parent="1">
          <mxGeometry x="73" y="230" width="40" height="40" as="geometry" />
        </mxCell>
        <mxCell id="O_kGr-6tOdU5lBr-60iN-8" value="" style="endArrow=none;html=1;rounded=0;" edge="1" parent="1" source="O_kGr-6tOdU5lBr-60iN-4" target="O_kGr-6tOdU5lBr-60iN-7">
          <mxGeometry width="50" height="50" relative="1" as="geometry">
            <mxPoint x="93" y="250" as="sourcePoint" />
            <mxPoint x="200" y="250" as="targetPoint" />
          </mxGeometry>
        </mxCell>
        <mxCell id="O_kGr-6tOdU5lBr-60iN-7" value="" style="shape=waypoint;sketch=0;fillStyle=solid;size=6;pointerEvents=1;points=[];fillColor=none;resizable=0;rotatable=0;perimeter=centerPerimeter;snapToPoint=1;verticalAlign=top;spacingBottom=0;spacingTop=-5;fontFamily=Verdana;fontSize=12;strokeWidth=0;" vertex="1" parent="1">
          <mxGeometry x="162.5" y="230" width="40" height="40" as="geometry" />
        </mxCell>
        <mxCell id="O_kGr-6tOdU5lBr-60iN-14" value="" style="endArrow=none;html=1;rounded=0;" edge="1" parent="1">
          <mxGeometry width="50" height="50" relative="1" as="geometry">
            <mxPoint x="19" y="214" as="sourcePoint" />
            <mxPoint x="29" y="204" as="targetPoint" />
          </mxGeometry>
        </mxCell>
        <mxCell id="O_kGr-6tOdU5lBr-60iN-16" value="" style="endArrow=none;html=1;rounded=0;" edge="1" parent="1">
          <mxGeometry width="50" height="50" relative="1" as="geometry">
            <mxPoint x="108" y="214" as="sourcePoint" />
            <mxPoint x="117.99999999999989" y="204" as="targetPoint" />
          </mxGeometry>
        </mxCell>
        <mxCell id="O_kGr-6tOdU5lBr-60iN-18" value="&lt;div&gt;C&lt;sub&gt;B&lt;/sub&gt;&lt;/div&gt;" style="text;html=1;align=center;verticalAlign=middle;resizable=0;points=[];autosize=1;strokeColor=none;fillColor=none;" vertex="1" parent="1">
          <mxGeometry x="187.5" y="110" width="40" height="30" as="geometry" />
        </mxCell>
        <mxCell id="O_kGr-6tOdU5lBr-60iN-55" value="" style="pointerEvents=1;verticalLabelPosition=bottom;shadow=0;dashed=0;align=center;html=1;verticalAlign=top;shape=mxgraph.electrical.capacitors.capacitor_1;rotation=90;" vertex="1" parent="1">
          <mxGeometry x="246" y="159" width="55" height="33" as="geometry" />
        </mxCell>
        <mxCell id="O_kGr-6tOdU5lBr-60iN-56" value="" style="pointerEvents=1;verticalLabelPosition=bottom;shadow=0;dashed=0;align=center;html=1;verticalAlign=top;shape=mxgraph.electrical.capacitors.capacitor_1;rotation=90;" vertex="1" parent="1">
          <mxGeometry x="334" y="159" width="55" height="33" as="geometry" />
        </mxCell>
        <mxCell id="O_kGr-6tOdU5lBr-60iN-57" value="..." style="text;html=1;align=center;verticalAlign=middle;resizable=0;points=[];autosize=1;strokeColor=none;fillColor=none;" vertex="1" parent="1">
          <mxGeometry x="304" y="159" width="30" height="30" as="geometry" />
        </mxCell>
        <mxCell id="O_kGr-6tOdU5lBr-60iN-58" value="&lt;div&gt;C&lt;sub&gt;0&#39;&lt;/sub&gt;&lt;/div&gt;" style="text;html=1;align=center;verticalAlign=middle;resizable=0;points=[];autosize=1;strokeColor=none;fillColor=none;" vertex="1" parent="1">
          <mxGeometry x="276" y="149" width="40" height="30" as="geometry" />
        </mxCell>
        <mxCell id="O_kGr-6tOdU5lBr-60iN-70" value="&lt;div&gt;C&lt;sub&gt;Ln&lt;/sub&gt;&lt;/div&gt;" style="text;html=1;align=center;verticalAlign=middle;resizable=0;points=[];autosize=1;strokeColor=none;fillColor=none;" vertex="1" parent="1">
          <mxGeometry x="362" y="149" width="40" height="30" as="geometry" />
        </mxCell>
        <mxCell id="O_kGr-6tOdU5lBr-60iN-71" value="" style="endArrow=none;html=1;rounded=0;" edge="1" parent="1">
          <mxGeometry width="50" height="50" relative="1" as="geometry">
            <mxPoint x="333.5" y="203" as="sourcePoint" />
            <mxPoint x="391.5" y="203" as="targetPoint" />
          </mxGeometry>
        </mxCell>
        <mxCell id="O_kGr-6tOdU5lBr-60iN-72" value="" style="endArrow=none;html=1;rounded=0;" edge="1" parent="1">
          <mxGeometry width="50" height="50" relative="1" as="geometry">
            <mxPoint x="333.9999999999999" y="203" as="sourcePoint" />
            <mxPoint x="334" y="203" as="targetPoint" />
          </mxGeometry>
        </mxCell>
        <mxCell id="O_kGr-6tOdU5lBr-60iN-73" value="" style="endArrow=none;html=1;rounded=0;" edge="1" parent="1">
          <mxGeometry width="50" height="50" relative="1" as="geometry">
            <mxPoint x="381" y="213" as="sourcePoint" />
            <mxPoint x="391" y="203" as="targetPoint" />
          </mxGeometry>
        </mxCell>
        <mxCell id="O_kGr-6tOdU5lBr-60iN-74" value="" style="endArrow=none;html=1;rounded=0;" edge="1" parent="1">
          <mxGeometry width="50" height="50" relative="1" as="geometry">
            <mxPoint x="380" y="229" as="sourcePoint" />
            <mxPoint x="380" y="219" as="targetPoint" />
          </mxGeometry>
        </mxCell>
        <mxCell id="O_kGr-6tOdU5lBr-60iN-76" value="" style="pointerEvents=1;verticalLabelPosition=bottom;shadow=0;dashed=0;align=center;html=1;verticalAlign=top;shape=mxgraph.electrical.signal_sources.signal_ground;" vertex="1" parent="1">
          <mxGeometry x="375" y="229" width="10" height="10" as="geometry" />
        </mxCell>
        <mxCell id="O_kGr-6tOdU5lBr-60iN-77" value="" style="endArrow=none;html=1;rounded=0;" edge="1" parent="1">
          <mxGeometry width="50" height="50" relative="1" as="geometry">
            <mxPoint x="334" y="226" as="sourcePoint" />
            <mxPoint x="334" y="216" as="targetPoint" />
          </mxGeometry>
        </mxCell>
        <mxCell id="O_kGr-6tOdU5lBr-60iN-78" value="" style="pointerEvents=1;verticalLabelPosition=bottom;shadow=0;dashed=0;align=center;html=1;verticalAlign=top;shape=mxgraph.electrical.signal_sources.signal_ground;" vertex="1" parent="1">
          <mxGeometry x="329" y="226" width="10" height="10" as="geometry" />
        </mxCell>
        <mxCell id="O_kGr-6tOdU5lBr-60iN-79" value="" style="curved=1;endArrow=classic;html=1;rounded=0;endSize=3;" edge="1" parent="1">
          <mxGeometry width="50" height="50" relative="1" as="geometry">
            <mxPoint x="375" y="214" as="sourcePoint" />
            <mxPoint x="395" y="216" as="targetPoint" />
            <Array as="points">
              <mxPoint x="385" y="207" />
            </Array>
          </mxGeometry>
        </mxCell>
        <mxCell id="O_kGr-6tOdU5lBr-60iN-80" value="&lt;font style=&quot;font-size: 6px;&quot;&gt;b&lt;sub&gt;Mn&lt;/sub&gt;&lt;/font&gt;" style="text;html=1;align=center;verticalAlign=middle;resizable=0;points=[];autosize=1;strokeColor=none;fillColor=none;" vertex="1" parent="1">
          <mxGeometry x="362" y="191" width="30" height="30" as="geometry" />
        </mxCell>
        <mxCell id="O_kGr-6tOdU5lBr-60iN-83" value="" style="shape=waypoint;sketch=0;fillStyle=solid;size=6;pointerEvents=1;points=[];fillColor=none;resizable=0;rotatable=0;perimeter=centerPerimeter;snapToPoint=1;verticalAlign=top;spacingBottom=0;spacingTop=-5;fontFamily=Verdana;fontSize=12;strokeWidth=0;" vertex="1" parent="1">
          <mxGeometry x="253.5" y="129" width="40" height="40" as="geometry" />
        </mxCell>
        <mxCell id="O_kGr-6tOdU5lBr-60iN-84" value="" style="shape=waypoint;sketch=0;fillStyle=solid;size=6;pointerEvents=1;points=[];fillColor=none;resizable=0;rotatable=0;perimeter=centerPerimeter;snapToPoint=1;verticalAlign=top;spacingBottom=0;spacingTop=-5;fontFamily=Verdana;fontSize=12;strokeWidth=0;" vertex="1" parent="1">
          <mxGeometry x="341.5" y="129" width="40" height="40" as="geometry" />
        </mxCell>
        <mxCell id="O_kGr-6tOdU5lBr-60iN-85" value="" style="endArrow=none;html=1;rounded=0;" edge="1" parent="1" source="O_kGr-6tOdU5lBr-60iN-7">
          <mxGeometry width="50" height="50" relative="1" as="geometry">
            <mxPoint x="236" y="250" as="sourcePoint" />
            <mxPoint x="400" y="250" as="targetPoint" />
          </mxGeometry>
        </mxCell>
        <mxCell id="O_kGr-6tOdU5lBr-60iN-100" style="endArrow=none;edgeStyle=orthogonalEdgeStyle;rounded=0;orthogonalLoop=1;jettySize=auto;html=1;" edge="1" parent="1">
          <mxGeometry relative="1" as="geometry">
            <mxPoint x="600" y="340" as="targetPoint" />
            <mxPoint x="600" y="369" as="sourcePoint" />
          </mxGeometry>
        </mxCell>
        <mxCell id="O_kGr-6tOdU5lBr-60iN-90" value="" style="endArrow=none;html=1;rounded=0;" edge="1" parent="1">
          <mxGeometry width="50" height="50" relative="1" as="geometry">
            <mxPoint x="324" y="213" as="sourcePoint" />
            <mxPoint x="333.9999999999999" y="203" as="targetPoint" />
          </mxGeometry>
        </mxCell>
        <mxCell id="O_kGr-6tOdU5lBr-60iN-94" style="endArrow=none;edgeStyle=orthogonalEdgeStyle;rounded=0;orthogonalLoop=1;jettySize=auto;html=1;entryX=0.959;entryY=0.547;entryDx=0;entryDy=0;entryPerimeter=0;" edge="1" parent="1" source="wLUBLnHTGpkRBW0rEwFv-54" target="O_kGr-6tOdU5lBr-60iN-84">
          <mxGeometry relative="1" as="geometry" />
        </mxCell>
        <mxCell id="O_kGr-6tOdU5lBr-60iN-98" value="" style="endArrow=none;html=1;rounded=0;" edge="1" parent="1">
          <mxGeometry width="50" height="50" relative="1" as="geometry">
            <mxPoint x="273.5" y="212" as="sourcePoint" />
            <mxPoint x="273.5" y="202" as="targetPoint" />
          </mxGeometry>
        </mxCell>
        <mxCell id="O_kGr-6tOdU5lBr-60iN-99" value="" style="pointerEvents=1;verticalLabelPosition=bottom;shadow=0;dashed=0;align=center;html=1;verticalAlign=top;shape=mxgraph.electrical.signal_sources.signal_ground;" vertex="1" parent="1">
          <mxGeometry x="268.5" y="212" width="10" height="10" as="geometry" />
        </mxCell>
        <mxCell id="O_kGr-6tOdU5lBr-60iN-101" value="" style="endArrow=none;html=1;rounded=0;" edge="1" parent="1">
          <mxGeometry width="50" height="50" relative="1" as="geometry">
            <mxPoint x="400" y="250" as="sourcePoint" />
            <mxPoint x="400" y="220" as="targetPoint" />
          </mxGeometry>
        </mxCell>
        <mxCell id="O_kGr-6tOdU5lBr-60iN-102" value="" style="endArrow=none;html=1;rounded=0;" edge="1" parent="1">
          <mxGeometry width="50" height="50" relative="1" as="geometry">
            <mxPoint x="363" y="149.39" as="sourcePoint" />
            <mxPoint x="391" y="149.39" as="targetPoint" />
          </mxGeometry>
        </mxCell>
        <mxCell id="O_kGr-6tOdU5lBr-60iN-103" value="V&lt;sub&gt;y&lt;/sub&gt;" style="text;html=1;align=center;verticalAlign=middle;resizable=0;points=[];autosize=1;strokeColor=none;fillColor=none;" vertex="1" parent="1">
          <mxGeometry x="392" y="133" width="40" height="30" as="geometry" />
        </mxCell>
        <mxCell id="O_kGr-6tOdU5lBr-60iN-104" value="V&lt;sub&gt;x&lt;/sub&gt;" style="text;html=1;align=center;verticalAlign=middle;resizable=0;points=[];autosize=1;strokeColor=none;fillColor=none;" vertex="1" parent="1">
          <mxGeometry x="83" y="120" width="40" height="30" as="geometry" />
        </mxCell>
        <mxCell id="O_kGr-6tOdU5lBr-60iN-105" value="" style="rounded=0;whiteSpace=wrap;html=1;fillColor=none;dashed=1;dashPattern=8 8;" vertex="1" parent="1">
          <mxGeometry x="13.5" y="120" width="177.5" height="150" as="geometry" />
        </mxCell>
        <mxCell id="O_kGr-6tOdU5lBr-60iN-106" value="MSB" style="text;html=1;align=center;verticalAlign=middle;resizable=0;points=[];autosize=1;strokeColor=none;fillColor=none;" vertex="1" parent="1">
          <mxGeometry x="78" y="90" width="50" height="30" as="geometry" />
        </mxCell>
        <mxCell id="O_kGr-6tOdU5lBr-60iN-107" value="" style="rounded=0;whiteSpace=wrap;html=1;fillColor=none;dashed=1;dashPattern=8 8;" vertex="1" parent="1">
          <mxGeometry x="227.5" y="120" width="202.5" height="150" as="geometry" />
        </mxCell>
        <mxCell id="O_kGr-6tOdU5lBr-60iN-108" value="LSB" style="text;html=1;align=center;verticalAlign=middle;resizable=0;points=[];autosize=1;strokeColor=none;fillColor=none;" vertex="1" parent="1">
          <mxGeometry x="291" y="90" width="50" height="30" as="geometry" />
        </mxCell>
      </root>
    </mxGraphModel>
  </diagram>
</mxfile>
